<svg version="1.1" xmlns="http://www.w3.org/2000/svg" width="700" height="700" viewBox="0 0 700 700" style="border-radius: 10px; overflow: hidden;">
  <rect width="100%" height="100%" rx="30" fill="white"/>
  
  <path d="M0 0 C0 25.08 0 50.16 0 76 C-8.415 76.495 -8.415 76.495 -17 77 C-45.15693905 82.71937824 -70.87040361 96.98149352 -87.25 121.25 C-94.4675566 132.3247295 -99.7498716 144.16280945 -103 157 C-103.33837891 158.30324219 -103.33837891 158.30324219 -103.68359375 159.6328125 C-109.36492263 186.51137532 -103.27843026 215.40547014 -89.23828125 238.71484375 C-85.26511898 244.5463088 -80.74372883 249.78766574 -76 255 C-75.44054687 255.65355469 -74.88109375 256.30710937 -74.3046875 256.98046875 C-64.78159524 267.47581388 -51.0449152 274.86829813 -38 280 C-37.08130127 280.36714111 -37.08130127 280.36714111 -36.14404297 280.74169922 C-24.006233 285.44379092 -13.42583115 285.7794699 0 287 C0 312.08 0 337.16 0 363 C-39.39083247 363 -78.89171329 350.54638248 -110 326 C-110.969375 325.23945312 -111.93875 324.47890625 -112.9375 323.6953125 C-121.96491242 316.44830642 -130.67150947 308.99062241 -138 300 C-138.82113281 299.01644531 -139.64226562 298.03289062 -140.48828125 297.01953125 C-155.88796518 278.26414488 -167.81268755 256.19290442 -175 233 C-175.35578125 231.90816406 -175.7115625 230.81632813 -176.078125 229.69140625 C-189.61020738 184.39932455 -181.73322849 134.96943772 -159.79345703 93.82373047 C-136.51019686 51.48211959 -96.39559098 20.62300195 -50.41015625 6.55859375 C-41.93986399 4.11126394 -33.41317142 2.43058461 -24.6875 1.1875 C-23.82930664 1.06342773 -22.97111328 0.93935547 -22.08691406 0.81152344 C-14.57702684 -0.15391144 -7.74424226 0 0 0 Z" 
        transform="translate(379,191)"
        fill="url(#gradient1)"/>
  
  <path d="M0 0 C53.46 0 106.92 0 162 0 C162 53.79 162 107.58 162 163 C137.25 163 112.5 163 87 163 C87 133.96 87 104.92 87 75 C58.29 75 29.58 75 0 75 C0 50.25 0 25.5 0 0 Z" 
        transform="translate(380,340)"
        fill="url(#gradient1)"/>
  
  <defs>
    <linearGradient id="gradient1" x1="0%" y1="0%" x2="100%" y2="100%">
      <stop offset="0%" stop-color="#558EFF"/>
      <stop offset="50%" stop-color="#002BFF"/>
      <stop offset="100%" stop-color="#558EFF"/>
    </linearGradient>
  </defs>
</svg>
