<?xml version="1.0" encoding="UTF-8"?>
<svg version="1.1" xmlns="http://www.w3.org/2000/svg" width="180" height="180">
<path d="M0 0 C1.85971687 -0.01489471 1.85971687 -0.01489471 3.75700378 -0.03009033 C7.14790495 -0.05424155 10.53856049 -0.06920692 13.92951822 -0.07811165 C16.05334294 -0.08399282 18.17714654 -0.09220618 20.30096054 -0.10112 C26.96128103 -0.12844443 33.62155269 -0.14778856 40.28192532 -0.15552378 C47.94154509 -0.16447101 55.60044851 -0.19951042 63.25985062 -0.25752497 C69.19897802 -0.30093022 75.13790519 -0.32094148 81.07718933 -0.32360601 C84.61568633 -0.32569053 88.1535089 -0.33725211 91.69183731 -0.37324524 C95.64765125 -0.41270438 99.60258886 -0.40356171 103.55859375 -0.390625 C105.28910728 -0.41826935 105.28910728 -0.41826935 107.05458069 -0.44647217 C116.83417905 -0.34683524 125.20063524 2.86714452 132.54248047 9.44726562 C140.18492948 17.97287393 142.56088113 27.20228917 142.41210938 38.38354492 C142.41941071 39.62905121 142.42671204 40.8745575 142.43423462 42.1578064 C142.44756178 45.5365156 142.43438682 48.9129768 142.40757036 52.29146171 C142.38472394 55.84663512 142.39317258 59.4017596 142.39706421 62.95698547 C142.39882271 68.92081696 142.37682032 74.88419053 142.33984375 80.84790039 C142.29746067 87.72254635 142.29050524 94.59652385 142.30296767 101.47127408 C142.31439116 108.11565621 142.30302512 114.75980531 142.28062057 121.40415382 C142.27138213 124.21854823 142.26955732 127.03279886 142.27379227 129.84720421 C142.27828969 133.7814422 142.24922098 137.71505529 142.21679688 141.64916992 C142.22175171 142.80420517 142.22670654 143.95924042 142.23181152 145.14927673 C142.09634998 155.47843576 138.83656133 163.78757753 131.66748047 171.32226562 C122.48855505 178.84932506 113.97036388 180.77245297 102.3515625 180.72631836 C101.13750732 180.73318161 99.92345215 180.74004486 98.67260742 180.74711609 C95.36240664 180.76222054 92.05277192 180.76389483 88.74257898 180.7581737 C85.96947469 180.75506921 83.19642063 180.76118837 80.42332351 180.76721245 C73.87559712 180.7812294 67.32800128 180.7797206 60.78027344 180.76831055 C54.04777779 180.75683704 47.31568088 180.77089821 40.58323777 180.79770702 C34.7825152 180.81993233 28.98191716 180.82648596 23.18115509 180.82063061 C19.7256546 180.81727547 16.27040949 180.81957878 12.81494522 180.83688164 C8.95720304 180.85535796 5.09994328 180.8410936 1.2421875 180.82397461 C-0.4523204 180.83847656 -0.4523204 180.83847656 -2.18106079 180.85327148 C-13.42216336 180.74921483 -21.0349541 177.43573477 -29.13330078 169.69335938 C-37.15341256 161.04645378 -38.6321994 152.75429245 -38.62304688 141.23339844 C-38.6297641 140.01963531 -38.63648132 138.80587219 -38.6434021 137.55532837 C-38.65911517 134.23685942 -38.66575544 130.91864082 -38.66703367 127.60015202 C-38.66845896 125.52257539 -38.67273576 123.44502469 -38.67802811 121.36745453 C-38.69651402 114.10693202 -38.70470078 106.84648276 -38.703125 99.5859375 C-38.70192489 92.83873117 -38.72300491 86.0918454 -38.75461233 79.34472013 C-38.78084718 73.53555856 -38.79148925 67.7265012 -38.79021418 61.91728091 C-38.78970653 58.45502611 -38.79527893 54.99305622 -38.81657028 51.5308609 C-38.83970603 47.66335276 -38.83038779 43.79627679 -38.81835938 39.92871094 C-38.82959839 38.79589691 -38.8408374 37.66308289 -38.85241699 36.49594116 C-38.76416133 25.28895543 -35.19071005 16.38076296 -27.33251953 8.32226562 C-18.6122742 1.22757125 -11.01200164 0.02111793 0 0 Z " fill="#FCB761" transform="translate(38.33251953125,-0.322265625)"/>
<path d="M0 0 C1.18227173 0.00519653 1.18227173 0.00519653 2.38842773 0.01049805 C8.83481308 0.12935266 15.43350725 0.61384067 21.375 3.3125 C22.8141342 7.6299026 21.43753027 10.66979101 20.1875 14.9375 C19.97802734 15.72640625 19.76855469 16.5153125 19.55273438 17.328125 C19.33552734 18.07835938 19.11832031 18.82859375 18.89453125 19.6015625 C18.69964111 20.28943848 18.50475098 20.97731445 18.30395508 21.68603516 C17.375 23.3125 17.375 23.3125 15.39794922 24.10107422 C12.79259123 24.37336966 11.68084607 23.50591386 9.375 22.3125 C3.90802942 21.51057484 -1.91207638 21.11377953 -6.625 24.375 C-11.43618063 29.20970719 -12.22897549 36.94662824 -13.625 43.3125 C-5.705 43.3125 2.215 43.3125 10.375 43.3125 C9.900625 46.07625 9.42625 48.84 8.9375 51.6875 C8.78998291 52.55681152 8.64246582 53.42612305 8.49047852 54.32177734 C7.48611111 60.09027778 7.48611111 60.09027778 6.375 62.3125 C-1.215 62.3125 -8.805 62.3125 -16.625 62.3125 C-16.91632813 63.92511719 -17.20765625 65.53773437 -17.5078125 67.19921875 C-20.62146206 84.29533012 -24.0086605 101.31542977 -27.625 118.3125 C-27.81787598 119.23514648 -28.01075195 120.15779297 -28.20947266 121.10839844 C-29.50890284 127.19640284 -29.50890284 127.19640284 -30.625 128.3125 C-32.47869611 128.39987645 -34.33567541 128.41948153 -36.19140625 128.41015625 C-37.31611328 128.40693359 -38.44082031 128.40371094 -39.59960938 128.40039062 C-40.78361328 128.39201172 -41.96761719 128.38363281 -43.1875 128.375 C-44.37537109 128.37048828 -45.56324219 128.36597656 -46.78710938 128.36132812 C-49.73312226 128.34949675 -52.67903681 128.33301287 -55.625 128.3125 C-54.10367074 118.51389769 -52.17848929 108.8048344 -50.22094727 99.08642578 C-49.6900136 96.44998174 -49.16214784 93.81293775 -48.63476562 91.17578125 C-46.70312576 81.53827199 -44.70952109 71.91828682 -42.625 62.3125 C-46.915 62.3125 -51.205 62.3125 -55.625 62.3125 C-54.90088806 55.91617785 -53.81139306 49.63992965 -52.625 43.3125 C-47.675 43.3125 -42.725 43.3125 -37.625 43.3125 C-37.521875 42.24 -37.41875 41.1675 -37.3125 40.0625 C-35.88047266 28.9593839 -32.91834916 16.38170459 -24.625 8.3125 C-16.61450505 2.79231436 -9.73131303 -0.0690749 0 0 Z " fill="#1E1D1B" transform="translate(84.625,25.6875)"/>
<path d="M0 0 C3.63 0 7.26 0 11 0 C10.8865625 0.90621094 10.773125 1.81242187 10.65625 2.74609375 C10.65081649 6.17165427 10.65081649 6.17165427 13.40625 8.16015625 C14.4271875 8.78792969 15.448125 9.41570312 16.5 10.0625 C19.59375 11.97265625 19.59375 11.97265625 22 14 C22.46875 16.62109375 22.46875 16.62109375 22 19 C19.60236815 21.39763185 18.66726502 21.34280586 15.375 21.625 C13.93125 21.74875 12.4875 21.8725 11 22 C13.64 23.98 16.28 25.96 19 28 C18.125 33.875 18.125 33.875 17 35 C14.01110641 35.45765667 11.01030352 35.70320951 8 36 C10.64 37.98 13.28 39.96 16 42 C15.125 47.875 15.125 47.875 14 49 C11.01110641 49.45765667 8.01030352 49.70320951 5 50 C7.64 51.98 10.28 53.96 13 56 C12.125 61.875 12.125 61.875 11 63 C8.01110641 63.45765667 5.01030352 63.70320951 2 64 C4.64 65.65 7.28 67.3 10 69 C9.125 75.875 9.125 75.875 8 77 C5.65012738 77.23527773 3.29443961 77.41386417 0.9375 77.5625 C-0.35285156 77.64628906 -1.64320312 77.73007813 -2.97265625 77.81640625 C-3.97167969 77.87699219 -4.97070312 77.93757813 -6 78 C-6.66 80.31 -7.32 82.62 -8 85 C-11.63 85 -15.26 85 -19 85 C-18.47606294 79.13190493 -17.23891142 74.45126259 -15 69 C-12.36 68.67 -9.72 68.34 -7 68 C-9.31 66.35 -11.62 64.7 -14 63 C-13.67 60.69 -13.34 58.38 -13 56 C-9.37 56 -5.74 56 -2 56 C-2 55.34 -2 54.68 -2 54 C-2.7425 53.731875 -3.485 53.46375 -4.25 53.1875 C-6.86636554 52.05770579 -8.80187111 50.79106798 -11 49 C-10.67 46.69 -10.34 44.38 -10 42 C-7.03 41.34 -4.06 40.68 -1 40 C-2.155 39.278125 -3.31 38.55625 -4.5 37.8125 C-7.9204235 35.38019885 -7.9204235 35.38019885 -8.5625 32.3125 C-8 30 -8 30 -6 28 C-3.6171875 27.8046875 -3.6171875 27.8046875 -0.875 27.875 C0.03507812 27.89304687 0.94515625 27.91109375 1.8828125 27.9296875 C2.58148438 27.95289062 3.28015625 27.97609375 4 28 C4 27.34 4 26.68 4 26 C3.2575 25.731875 2.515 25.46375 1.75 25.1875 C-0.86636554 24.05770579 -2.80187111 22.79106798 -5 21 C-4.125 15.125 -4.125 15.125 -3 14 C-1.31391034 13.92794489 0.37500659 13.91613932 2.0625 13.9375 C2.98160156 13.94652344 3.90070313 13.95554687 4.84765625 13.96484375 C5.55792969 13.97644531 6.26820312 13.98804687 7 14 C7 13.34 7 12.68 7 12 C6.236875 11.71125 5.47375 11.4225 4.6875 11.125 C2 10 2 10 -1 8 C-1.25660094 4.92078868 -1.39431504 2.78863007 0 0 Z " fill="#191612" transform="translate(114,69)"/>
<path d="M0 0 C2.77604996 2.42904371 4.77151466 4.3925283 5.3984375 8.1171875 C5.34917128 13.38867331 5.09074023 17.27375553 2 21.75 C-2.65881005 26.05939929 -6.1229046 26.92658488 -12.375 27.0625 C-13.49648437 27.09988281 -14.61796875 27.13726562 -15.7734375 27.17578125 C-19.65385586 26.66371636 -21.23562425 25.45908823 -24 22.75 C-26.09428889 18.56142223 -25.41793012 13.31140874 -25 8.75 C-23.0373739 4.35371754 -20.4544566 1.67424973 -16.12890625 -0.55859375 C-10.81197383 -2.28537731 -5.13354439 -2.13897683 0 0 Z " fill="#2E2D2B" transform="translate(142,28.25)"/>
</svg>
